<svg xmlns="http://www.w3.org/2000/svg" xmlns:xlink="http://www.w3.org/1999/xlink" version="1.1" width="256" height="256" viewBox="0 0 256 256" xml:space="preserve">

<defs>
</defs>
<g style="stroke: none; stroke-width: 0; stroke-dasharray: none; stroke-linecap: butt; stroke-linejoin: miter; stroke-miterlimit: 10; fill: rgb(255,255,255); fill-rule: nonzero; opacity: 1;" transform="translate(0 -2.842170943040401e-14) scale(2.81 2.81)" >
	<path d="M 45 90 C 20.187 90 0 69.814 0 45 C 0 20.187 20.187 0 45 0 c 24.814 0 45 20.187 45 45 C 90 69.814 69.814 90 45 90 z M 45 5.625 C 23.289 5.625 5.625 23.289 5.625 45 c 0 21.712 17.664 39.375 39.375 39.375 c 21.712 0 39.375 -17.663 39.375 -39.375 C 84.375 23.289 66.712 5.625 45 5.625 z" style="stroke: none; stroke-width: 1; stroke-dasharray: none; stroke-linecap: butt; stroke-linejoin: miter; stroke-miterlimit: 10; fill: rgb(255,255,255); fill-rule: nonzero; opacity: 1;" transform=" matrix(1 0 0 1 0 0) " stroke-linecap="round" />
</g>
<g style="stroke: none; stroke-width: 0; stroke-dasharray: none; stroke-linecap: butt; stroke-linejoin: miter; stroke-miterlimit: 10; fill: none; fill-rule: nonzero; opacity: 1;" transform="translate(46.17984832069338 46.17984832069335) scale(1.82 1.82)" >
	<path d="M 45 56.551 c -6.369 0 -11.551 -5.182 -11.551 -11.551 S 38.631 33.449 45 33.449 S 56.551 38.631 56.551 45 S 51.369 56.551 45 56.551 z" style="stroke: none; stroke-width: 1; stroke-dasharray: none; stroke-linecap: butt; stroke-linejoin: miter; stroke-miterlimit: 10; fill: rgb(255,255,255); fill-rule: nonzero; opacity: 1;" transform=" matrix(1 0 0 1 0 0) " stroke-linecap="round" />
	<path d="M 11.551 56.551 C 5.182 56.551 0 51.369 0 45 s 5.182 -11.551 11.551 -11.551 c 6.37 0 11.551 5.182 11.551 11.551 S 17.92 56.551 11.551 56.551 z" style="stroke: none; stroke-width: 1; stroke-dasharray: none; stroke-linecap: butt; stroke-linejoin: miter; stroke-miterlimit: 10; fill: rgb(255,255,255); fill-rule: nonzero; opacity: 1;" transform=" matrix(1 0 0 1 0 0) " stroke-linecap="round" />
	<path d="M 78.449 56.551 c -6.369 0 -11.551 -5.182 -11.551 -11.551 s 5.182 -11.551 11.551 -11.551 S 90 38.631 90 45 S 84.818 56.551 78.449 56.551 z" style="stroke: none; stroke-width: 1; stroke-dasharray: none; stroke-linecap: butt; stroke-linejoin: miter; stroke-miterlimit: 10; fill: rgb(255,255,255); fill-rule: nonzero; opacity: 1;" transform=" matrix(1 0 0 1 0 0) " stroke-linecap="round" />
</g>
</svg>