<svg xmlns="http://www.w3.org/2000/svg" xmlns:xlink="http://www.w3.org/1999/xlink" version="1.1" width="256" height="256" viewBox="0 0 256 256" xml:space="preserve">

<defs>
</defs>
<g style="stroke: none; stroke-width: 0; stroke-dasharray: none; stroke-linecap: butt; stroke-linejoin: miter; stroke-miterlimit: 10; fill: none; fill-rule: nonzero; opacity: 1;" transform="translate(0 -2.842170943040401e-14) scale(2.81 2.81)" >
	<path d="M 69.681 90 H 20.319 C 9.115 90 0 80.885 0 69.681 V 20.319 C 0 9.115 9.115 0 20.319 0 h 49.362 C 80.885 0 90 9.115 90 20.319 v 49.362 C 90 80.885 80.885 90 69.681 90 z M 20.319 5.625 c -8.102 0 -14.694 6.592 -14.694 14.694 v 49.362 c 0 8.102 6.592 14.694 14.694 14.694 h 49.362 c 8.102 0 14.694 -6.592 14.694 -14.694 V 20.319 c 0 -8.102 -6.592 -14.694 -14.694 -14.694 H 20.319 z" style="stroke: none; stroke-width: 1; stroke-dasharray: none; stroke-linecap: butt; stroke-linejoin: miter; stroke-miterlimit: 10; fill: rgb(0,0,0); fill-rule: nonzero; opacity: 1;" transform=" matrix(1 0 0 1 0 0) " stroke-linecap="round" />
</g>
<g style="stroke: none; stroke-width: 0; stroke-dasharray: none; stroke-linecap: butt; stroke-linejoin: miter; stroke-miterlimit: 10; fill: none; fill-rule: nonzero; opacity: 1;" transform="translate(41.722334004024134 41.722334004024106) scale(1.92 1.92)" >
	<path d="M 45 0 C 20.147 0 0 20.147 0 45 c 0 24.853 20.147 45 45 45 s 45 -20.147 45 -45 C 90 20.147 69.853 0 45 0 z M 52.225 68.856 L 20.961 21.144 h 16.815 l 31.264 47.711 H 52.225 z" style="stroke: none; stroke-width: 1; stroke-dasharray: none; stroke-linecap: butt; stroke-linejoin: miter; stroke-miterlimit: 10; fill: rgb(0,0,0); fill-rule: nonzero; opacity: 1;" transform=" matrix(1 0 0 1 0 0) " stroke-linecap="round" />
</g>
</svg>